<?xml version="1.0" encoding="utf-8"?>
<!-- Generator: Adobe Illustrator 23.0.3, SVG Export Plug-In . SVG Version: 6.00 Build 0)  -->
<svg version="1.1" id="Layer_1" xmlns="http://www.w3.org/2000/svg" xmlns:xlink="http://www.w3.org/1999/xlink" x="0px" y="0px"
	 viewBox="0 0 40 40" style="enable-background:new 0 0 40 40;" xml:space="preserve">
<style type="text/css">
	.st0{fill:none;stroke:#000000;stroke-width:1.4;}
	.st1{fill:#1A1A1A;stroke:#1A1A1A;stroke-width:0.2;}
	.st2{fill:#1A1A1A;}
</style>
<path class="st0" d="M20,37.3c-9.5,0-17.3-7.8-17.3-17.3c0-9.5,7.8-17.3,17.3-17.3c9.5,0,17.3,7.8,17.3,17.3
	C37.3,29.5,29.5,37.3,20,37.3z"/>
<path class="st1" d="M29.7,24.5c-0.1,0-0.1,0-0.2-0.1c-0.1,0-0.1-0.1-0.2-0.1s-0.1-0.1-0.1-0.2c0-0.1,0-0.1,0-0.2
	c0.1-0.2,0.2-0.4,0.2-0.6c0.3-1.2,0.3-2.4-0.1-3.5c0-0.1,0-0.2,0-0.3c0.1-0.1,0.1-0.2,0.3-0.2c0.1,0,0.2,0,0.3,0
	c0.1,0.1,0.2,0.1,0.2,0.3c0.4,1.3,0.4,2.7,0.1,4c-0.1,0.3-0.2,0.5-0.3,0.8c0,0.1-0.1,0.1-0.2,0.2C29.9,24.5,29.8,24.5,29.7,24.5
	L29.7,24.5z"/>
<path class="st2" d="M30.8,16.2c-2.5-4.3-7-6.4-10.3-4.7l0,0l-0.1,0c0,0,0,0,0,0c0,0,0,0,0,0c-0.7,0.4-1.3,1-1.7,1.6
	c-0.4,0.5-0.6,1.1-0.8,1.7c-2.3-0.5-5.2,0.5-7.5,2.7c-3.1,3.1-3.8,7.5-1.5,9.8L9,27.4l0,0c0.5,0.4,1,0.8,1.6,1
	c0.6,0.2,1.2,0.3,1.8,0.3c0.1,0,0.1,0,0.2,0c2.1,0,4.5-1.1,6.2-2.8c0.5-0.5,0.9-1,1.3-1.6c1.8,2.4,4.4,3.8,6.7,3.8c0,0,0,0,0,0
	c0.9,0,1.8-0.2,2.6-0.7l0.1,0l0,0c0.6-0.4,1.2-0.9,1.6-1.4c0.5-0.6,0.8-1.3,1-2C32.7,21.6,32.2,18.7,30.8,16.2z M14.6,21.2
	c-3.4,0.2-4.9,3.1-5.5,4.7c-1.1-2-0.3-5.2,2-7.6c2.6-2.6,6.2-3.3,8.2-1.6C19.1,17.6,18,21,14.6,21.2z M14.7,22.2
	c1.2-0.1,4.1-0.7,5.5-4.7c1.1,2,0.3,5.3-2,7.6c-2.6,2.6-6.2,3.3-8.2,1.7C10.2,25.7,11.3,22.5,14.7,22.2z M20.3,16.2L20.3,16.2
	L20.3,16.2c-0.5-0.5-0.9-0.8-1.4-1c0.1-0.5,0.3-1,0.6-1.4c0.3-0.5,0.7-0.9,1.2-1.2c1,0.6,4.5,2.8,3.7,6.8c-0.6,2.8,0.7,4.8,1.8,6
	c0.6,0.7,1.3,1.2,1.8,1.5c-2.4,0.7-5.3-0.7-7.4-3.6C22,20.8,22,17.9,20.3,16.2z M25.5,19.6c0.8-4-2.1-6.5-3.6-7.5
	c2.7-0.8,6.1,1.2,8.1,4.6c1.3,2.3,1.7,4.9,1.1,7c-0.3,1.1-0.9,2.1-1.9,2.7C24.9,24.1,25.2,20.6,25.5,19.6z"/>
<path class="st1" d="M12.6,27c-0.2,0-0.4,0-0.6,0c-0.1,0-0.2-0.1-0.3-0.2c-0.1-0.1-0.1-0.2-0.1-0.3c0-0.1,0.1-0.2,0.2-0.3
	c0.1-0.1,0.2-0.1,0.3-0.1c0.9,0.1,1.8-0.1,2.6-0.4c0,0,0.1,0,0.2,0c0.1,0,0.1,0,0.2,0s0.1,0,0.1,0.1c0,0,0.1,0.1,0.1,0.1
	s0,0.1,0,0.2c0,0.1,0,0.1,0,0.2c0,0.1,0,0.1-0.1,0.1s-0.1,0.1-0.1,0.1C14.2,26.8,13.4,27,12.6,27L12.6,27z"/>
</svg>
