<svg width="36" height="36" xmlns="http://www.w3.org/2000/svg"><g fill="none" fill-rule="evenodd"><path d="M0 0h36v36H0z"/><path d="M18 35.3c9.539 0 17.3-7.762 17.3-17.3C35.3 8.46 27.539.7 18 .7 8.461.7.7 8.461.7 18c0 9.538 7.762 17.3 17.3 17.3z" stroke="#000" stroke-width="1.4"/><path d="M19.167 28H25s0-4.198-3.5-4.198v-8.604C25 15.198 25 11 25 11H11s0 4.198 3.5 4.198v8.604C11 23.802 11 28 11 28h8.167zM18 11V7.143h7V5" stroke="#000" stroke-width="1.2" stroke-linecap="round" stroke-linejoin="round"/><path d="M8 18a1 1 0 110 2 1 1 0 010-2M11 16a1 1 0 110 2 1 1 0 010-2M11 20a1 1 0 110 2 1 1 0 010-2" fill="#000"/></g></svg>