<svg width="40" height="40" xmlns="http://www.w3.org/2000/svg"><g fill="none" fill-rule="evenodd"><path d="M2 2h36v36H2z"/><path d="M20 37.3c9.539 0 17.3-7.762 17.3-17.3 0-9.539-7.761-17.3-17.3-17.3-9.539 0-17.3 7.761-17.3 17.3 0 9.538 7.762 17.3 17.3 17.3z" stroke="#000" stroke-width="1.4"/><path d="M27.674 8.034c-.674-.11-1.307.046-1.883.464-1.47 1.064-2.169 3.656-2.415 4.804a5.282 5.282 0 00-.75-.072h-.108c-2.702 0-4.413 2.014-4.819 5.674-.402 3.618-2.225 6.78-4.879 8.458l-.091.058c-.589.37-1.322.832-1.613 1.669-.289.83-.026 1.745.64 2.225.463.334 1.028.497 1.729.497.414 0 .818-.056 1.193-.116.91-.148 1.813-.378 2.685-.685 2.124-.746 3.907-1.829 5.301-3.216 2.317-2.307 4.745-6.411 4.6-9.969a6.312 6.312 0 00-.325-1.772c-.412-1.215-1.37-2.014-2.446-2.443.245-1.187.893-3.39 1.978-4.176.321-.233.654-.317 1.019-.258a.58.58 0 00.185-1.142zm-1.83 8.391c.154.456.243.943.264 1.447.13 3.209-2.117 6.967-4.26 9.101-1.271 1.265-2.91 2.256-4.87 2.945a14.51 14.51 0 01-2.484.634 6.496 6.496 0 01-1.01.1c-.448 0-.792-.09-1.051-.277-.28-.202-.324-.618-.223-.907.157-.453.633-.752 1.136-1.07l.093-.059c2.948-1.864 4.97-5.344 5.41-9.308.342-3.082 1.577-4.645 3.67-4.645h.085c1.276.026 2.773.666 3.24 2.039zm-4.741 8.805c1.634-1.695 3.508-4.6 3.408-7.206a.46.46 0 01.442-.477.465.465 0 01.477.442c.11 2.892-1.821 5.966-3.666 7.88a.458.458 0 01-.65.011.46.46 0 01-.011-.65z" fill="#000"/></g></svg>