<svg width="40" height="40" xmlns="http://www.w3.org/2000/svg"><g fill="none" fill-rule="evenodd"><path d="M2 2h36v36H2z"/><path d="M20 37.3c9.539 0 17.3-7.762 17.3-17.3 0-9.539-7.761-17.3-17.3-17.3-9.539 0-17.3 7.761-17.3 17.3 0 9.538 7.762 17.3 17.3 17.3z" stroke="#000" stroke-width="1.4"/><path d="M26.245 14.71a2.438 2.438 0 002.03-2.042l.388-1.413-1.404.39a2.44 2.44 0 00-2.03 2.042l-.17.62h-.001L11.114 28.33a.394.394 0 00.276.67c.1 0 .2-.038.276-.115l13.91-13.99.669-.186zm-.249-.882a1.66 1.66 0 011.402-1.41l.146-.037-.038.146a1.66 1.66 0 01-1.401 1.41l-.146.037.037-.146zm-2.298 1.532l.719-1.274a2.457 2.457 0 000-2.888l-.719-1.275-.719 1.275a2.456 2.456 0 000 2.888l.719 1.274zm-.076-3.715l.076-.13.077.13c.44.596.44 1.397 0 1.993l-.077.13-.076-.13a1.672 1.672 0 010-1.993zm2.208 3.862l-1.267.723 1.267.723c.43.315.933.472 1.436.472.502 0 1.004-.157 1.435-.472l1.268-.723-1.268-.723a2.418 2.418 0 00-2.871 0zm2.427.8a1.648 1.648 0 01-1.982 0l-.13-.077.13-.077a1.645 1.645 0 011.982 0l.13.077-.13.077zm-7.043 1.551l.718-1.274a2.455 2.455 0 000-2.888l-.718-1.275-.719 1.275a2.457 2.457 0 000 2.888l.719 1.274zm-.077-3.715l.077-.13.077.13c.439.596.439 1.398 0 1.993l-.077.13-.077-.13a1.672 1.672 0 010-1.993zm2.209 3.862l-1.267.723 1.267.723c.43.315.933.472 1.436.472a2.43 2.43 0 001.436-.472l1.267-.723-1.267-.723a2.422 2.422 0 00-2.872 0zm2.427.8a1.647 1.647 0 01-1.982 0l-.13-.077.13-.077a1.649 1.649 0 011.982 0l.13.077-.13.077zm-7.043 1.552l.718-1.275a2.457 2.457 0 000-2.888l-.718-1.274-.72 1.274a2.456 2.456 0 000 2.888l.72 1.275zm-.077-3.716l.077-.13.076.13c.44.597.44 1.398 0 1.994l-.076.13-.077-.13a1.672 1.672 0 010-1.994zm2.209 3.863l-1.267.722 1.267.723c.43.315.933.472 1.435.472.503 0 1.005-.157 1.436-.472L25 21.226l-1.267-.722a2.422 2.422 0 00-2.871 0zm2.427.8a1.648 1.648 0 01-1.983 0l-.13-.078.13-.077a1.648 1.648 0 011.983 0l.13.077-.13.077zm-7.044 1.55l.719-1.274a2.456 2.456 0 000-2.887l-.719-1.274-.718 1.274a2.457 2.457 0 000 2.887l.718 1.274zm-.076-3.714l.076-.13.077.13c.439.596.439 1.397 0 1.994l-.077.13-.076-.13a1.674 1.674 0 010-1.994zm.941 4.585l1.267.723a2.428 2.428 0 002.871 0l1.268-.723-1.267-.723a2.42 2.42 0 00-2.872 0l-1.267.723zm1.712.077l-.13-.077.13-.077a1.646 1.646 0 011.982 0l.13.077-.13.077a1.648 1.648 0 01-1.982 0zm-5.06 1.552l.718-1.275a2.455 2.455 0 000-2.888l-.719-1.275-.719 1.275a2.455 2.455 0 000 2.888l.72 1.275zm-.078-3.715l.077-.13.077.13c.44.596.44 1.397 0 1.992l-.077.13-.077-.13a1.672 1.672 0 010-1.992zm2.21 3.861l-1.268.723 1.267.723c.431.315.934.472 1.436.472a2.43 2.43 0 001.436-.472l1.267-.723-1.267-.723a2.421 2.421 0 00-2.872 0zm.444.8l-.13-.077.13-.077a1.648 1.648 0 011.982 0l.13.077-.13.077a1.646 1.646 0 01-1.982 0z" fill="#000"/></g></svg>