<svg width="40" height="40" xmlns="http://www.w3.org/2000/svg"><g fill="none" fill-rule="evenodd"><path d="M2 2h36v36H2z"/><path d="M20 37.3c9.539 0 17.3-7.762 17.3-17.3 0-9.539-7.761-17.3-17.3-17.3-9.539 0-17.3 7.761-17.3 17.3 0 9.538 7.762 17.3 17.3 17.3z" stroke="#000" stroke-width="1.4"/><path d="M24.72 17.138a2.194 2.194 0 001.827-1.837l.35-1.271-1.264.35a2.195 2.195 0 00-1.828 1.838l-.152.558-12.55 12.62a.354.354 0 00.248.604.35.35 0 00.249-.104l12.52-12.59.6-.168zm-.223-.793c.097-.66.604-1.17 1.261-1.269l.131-.033-.033.131a1.494 1.494 0 01-1.262 1.269l-.13.034.033-.132zm-2.069 1.379l.647-1.147a2.21 2.21 0 000-2.6l-.647-1.146-.647 1.147a2.21 2.21 0 000 2.599l.647 1.147zm-.069-3.344l.07-.117.068.117a1.506 1.506 0 010 1.795l-.068.117-.07-.117a1.505 1.505 0 010-1.795zm1.988 3.476l-1.14.65 1.14.651c.388.284.84.425 1.292.425.452 0 .904-.141 1.292-.425l1.14-.65-1.14-.65a2.177 2.177 0 00-2.584 0zm2.184.72a1.483 1.483 0 01-1.784 0l-.116-.07.116-.068a1.48 1.48 0 011.784 0l.117.069-.117.07zm-6.339 1.397l.647-1.148a2.21 2.21 0 000-2.598l-.647-1.148-.646 1.148a2.21 2.21 0 000 2.598l.646 1.148zm-.068-3.344l.068-.117.07.117a1.505 1.505 0 010 1.793l-.07.118-.068-.118a1.505 1.505 0 010-1.793zm1.987 3.476l-1.14.65 1.14.65c.388.284.84.425 1.293.425.452 0 .904-.141 1.292-.424l1.14-.65-1.14-.651a2.18 2.18 0 00-2.585 0zm2.185.72a1.482 1.482 0 01-1.785 0l-.116-.07.116-.07a1.484 1.484 0 011.785 0l.116.07-.116.07zm-6.34 1.396l.647-1.147a2.211 2.211 0 000-2.6l-.646-1.146-.647 1.147a2.21 2.21 0 000 2.599l.647 1.147zm-.068-3.344l.069-.117.068.117a1.506 1.506 0 010 1.794l-.068.117-.07-.117a1.505 1.505 0 010-1.794zm1.988 3.476l-1.14.65 1.14.651c.387.283.84.425 1.292.425.452 0 .904-.142 1.292-.425l1.14-.65-1.14-.65a2.18 2.18 0 00-2.584 0zm2.184.72a1.483 1.483 0 01-1.784 0l-.117-.07.117-.069a1.484 1.484 0 011.784 0l.116.07-.116.069zm-6.34 1.396l.648-1.147a2.21 2.21 0 000-2.599l-.647-1.146-.647 1.146a2.211 2.211 0 000 2.6l.647 1.146zm-.068-3.343l.069-.117.069.117a1.506 1.506 0 010 1.794l-.07.117-.068-.117a1.506 1.506 0 010-1.794zm.847 4.126l1.14.65c.388.284.84.425 1.293.425.452 0 .904-.14 1.292-.424l1.14-.65-1.14-.651a2.178 2.178 0 00-2.585 0l-1.14.65zm1.54.07l-.116-.07.117-.069a1.481 1.481 0 011.784 0l.117.07-.117.069a1.484 1.484 0 01-1.784 0zm-4.554 1.396l.647-1.147a2.21 2.21 0 000-2.599l-.647-1.147-.647 1.147a2.21 2.21 0 000 2.599l.647 1.147zm-.07-3.343l.07-.118.07.118a1.505 1.505 0 010 1.793l-.07.118-.07-.118a1.505 1.505 0 010-1.793zm1.989 3.475l-1.14.65 1.14.651c.388.284.84.425 1.292.425.453 0 .904-.141 1.293-.425l1.14-.65-1.14-.65a2.18 2.18 0 00-2.585 0zm.4.72l-.117-.07.117-.068a1.484 1.484 0 011.784 0l.117.069-.117.07a1.481 1.481 0 01-1.784 0zm7.882-13.864a.35.35 0 00.249-.104l1.987-1.999a.354.354 0 000-.5.35.35 0 00-.497 0l-1.987 2a.354.354 0 00.248.603zm1.243.396a.35.35 0 00.496 0l2.485-2.499a.354.354 0 000-.5.35.35 0 00-.497 0l-2.484 2.499a.354.354 0 000 .5zm4.471-1l-2.484 2.499a.354.354 0 00.248.603.35.35 0 00.249-.104l2.484-2.498a.354.354 0 000-.5.35.35 0 00-.497 0zm-2.236.75a.35.35 0 00.497 0l2.236-2.249a.354.354 0 000-.5.35.35 0 00-.497 0l-2.236 2.25a.354.354 0 000 .499zm2.236 1.25L27.413 17.1a.354.354 0 00.248.603.35.35 0 00.249-.104l1.987-1.998a.354.354 0 000-.5.35.35 0 00-.497 0z" fill="#000"/></g></svg>