<svg width="40" height="40" xmlns="http://www.w3.org/2000/svg"><g fill="none" fill-rule="evenodd"><path d="M2 2h36v36H2z"/><g fill="#000"><path d="M26.496 22.23c-.266-.588-1.144-.659-1.795-.917-.354-.14-.349-.585-.815-.626-1.65-.145-2.964.834-3.698 2.757-.227.597-.684 1.092-1.222 1.323-.539.233-1.057.156-1.389-.2-.527-.568-1.136-.733-1.762-.478-.48.197-1.178.734-1.785 2.182-.037.106-.671 2.061.233 3.717.195.357.474.626.744.886l.043.04c.09.088.25.232.471.4.554.417 1.5.977 2.736 1.14 1.801.236 3.562-.434 5.232-1.991a10.656 10.656 0 002.685-4.056c.457-1.223.884-2.941.322-4.178zm-8.055 9.724c-1.635-.214-2.734-1.169-3.032-1.456l-.043-.041c-.265-.255-.515-.496-.687-.811-.781-1.43-.277-3.154-.23-3.305.398-.943.897-1.577 1.406-1.786.458-.187.925-.042 1.351.418.43.465 1.106.56 1.81.256.701-.302 1.297-.946 1.593-1.721.636-1.665 1.682-2.446 3.109-2.32.153.014.605.59.745.614.954.171 1.29.052 1.606.747.5 1.1.103 2.673-.318 3.8a9.914 9.914 0 01-2.496 3.775c-1.537 1.432-3.156 2.048-4.814 1.83z"/><path d="M19.608 26.271a.194.194 0 00-.07.276c.06.1.188.138.287.086.866-.462 1.445-1.326 1.508-2.254a.224.224 0 00-.194-.23.192.192 0 00-.22.177c-.056.798-.558 1.543-1.31 1.945zM17.899 26.848c.37.108.766.128 1.145.058a.19.19 0 00.152-.237.222.222 0 00-.253-.164 2.09 2.09 0 01-.95-.048.195.195 0 00-.25.137.218.218 0 00.156.254z"/><g><path d="M20.754 18.61c.299.572-.186 1.307-.383 1.979-.108.366.246.635-.008 1.027-.902 1.39-2.482 1.823-4.45 1.217-.61-.188-1.281-.132-1.795.149-.515.281-.774.737-.698 1.217.124.766-.12 1.347-.708 1.683-.45.257-1.303.476-2.818.064-.106-.037-2.038-.74-2.785-2.472-.162-.374-.202-.76-.24-1.132l-.006-.06a5.156 5.156 0 01-.024-.616c.012-.694.152-1.784.786-2.858.923-1.565 2.534-2.54 4.79-2.897a10.656 10.656 0 014.848.381c1.246.393 2.862 1.114 3.491 2.318zm-12.623.36c-.837 1.421-.761 2.874-.719 3.287l.006.059c.038.365.074.71.216 1.04.646 1.497 2.315 2.16 2.463 2.216.988.268 1.795.265 2.273-.008.43-.246.602-.703.503-1.322-.102-.625.24-1.216.911-1.583.671-.368 1.545-.44 2.338-.197 1.704.525 2.962.18 3.742-1.021.084-.13-.091-.84-.025-.966.453-.856.754-1.048.4-1.725-.559-1.07-2.043-1.726-3.19-2.088a9.914 9.914 0 00-4.512-.358c-2.074.33-3.556 1.226-4.406 2.667z"/><path d="M13.329 21.55a.194.194 0 01-.26-.115.218.218 0 01.108-.279c.898-.398 1.934-.322 2.704.2.061.04.094.111.093.183 0 .037-.011.076-.031.11a.192.192 0 01-.275.066c-.663-.448-1.56-.511-2.34-.165zM11.821 22.542a2.51 2.51 0 01.66-.939.19.19 0 01.28.027.222.222 0 01-.026.3 2.09 2.09 0 00-.548.779.195.195 0 01-.261.112.218.218 0 01-.105-.28z"/></g><g><path d="M33.154 19.554c-.246.596-1.121.697-1.763.978-.349.153-.328.597-.792.654-1.644.203-2.991-.73-3.792-2.627-.249-.588-.722-1.066-1.268-1.279-.547-.213-1.062-.119-1.38.248-.508.587-1.11.773-1.745.54-.486-.18-1.203-.693-1.86-2.118-.04-.106-.743-2.037.103-3.723.183-.364.452-.643.713-.912l.04-.042c.088-.09.242-.24.458-.415.54-.437 1.465-1.03 2.695-1.235 1.791-.299 3.574.309 5.298 1.807a10.656 10.656 0 012.824 3.96c.5 1.206.986 2.908.469 4.164zm-8.39-9.438c-1.627.271-2.691 1.263-2.98 1.561l-.041.043c-.256.264-.497.513-.658.834-.732 1.457-.167 3.161-.115 3.31.43.93.951 1.546 1.467 1.737.465.17.926.01 1.336-.465.414-.48 1.086-.598 1.8-.32.712.279 1.33.901 1.652 1.665.694 1.642 1.766 2.386 3.188 2.21.153-.019.584-.61.724-.64.947-.203 1.287-.096 1.579-.802.46-1.116.008-2.675-.451-3.786a9.914 9.914 0 00-2.627-3.686c-1.585-1.378-3.225-1.937-4.875-1.661z"/><path d="M26.129 15.755a.194.194 0 01-.08-.273.218.218 0 01.283-.096c.883.431 1.49 1.274 1.587 2.2a.224.224 0 01-.186.236.192.192 0 01-.227-.169c-.083-.796-.61-1.523-1.377-1.898zM24.4 15.238a2.51 2.51 0 011.143-.098.19.19 0 01.16.232.222.222 0 01-.247.173 2.09 2.09 0 00-.949.08.195.195 0 01-.254-.128.218.218 0 01.147-.26z"/></g></g><path d="M20 37.3c9.539 0 17.3-7.762 17.3-17.3 0-9.539-7.761-17.3-17.3-17.3-9.539 0-17.3 7.761-17.3 17.3 0 9.538 7.762 17.3 17.3 17.3z" stroke="#000" stroke-width="1.4"/></g></svg>