<svg width="36" height="36" xmlns="http://www.w3.org/2000/svg"><g fill="none" fill-rule="evenodd"><path d="M0 0h36v36H0z"/><path d="M18 35.3c9.539 0 17.3-7.762 17.3-17.3C35.3 8.46 27.539.7 18 .7 8.461.7.7 8.461.7 18c0 9.538 7.762 17.3 17.3 17.3z" stroke="#000" stroke-width="1.4"/><path d="M24.741 12.278c-1.718-1.37-4.152-.99-6.08-.507-.31.078-.629.115-.948.13a8.174 8.174 0 00-.19-.773l1.49-.225c1.909-.288 3.382-1.78 3.667-3.713l.22-1.495a.404.404 0 00.023-.161L23.001 5l-2.163.326c-1.91.288-3.383 1.78-3.667 3.713l-.13.882c-.442-.86-1.078-1.612-1.956-2.086a.397.397 0 00-.54.167.407.407 0 00.164.546c1.219.658 1.89 1.989 2.185 3.326a4.684 4.684 0 01-.554-.103c-1.928-.483-4.363-.862-6.08.507C8.72 13.504 7.98 15.93 8 19.698c.014 2.783 1.597 5.993 3.85 7.807 1.487 1.198 3.086 1.647 4.623 1.296a4.641 4.641 0 012.054 0 4.6 4.6 0 001.026.116c1.212 0 2.438-.479 3.597-1.412 2.253-1.814 3.835-5.025 3.85-7.807.02-3.767-.72-6.194-2.259-7.42zm-5.846-2.175l-.35.053 3.397-3.439-.053.355c-.231 1.578-1.435 2.797-2.994 3.031zm2.06-3.977l.52-.079-3.592 3.636.078-.526c.232-1.578 1.435-2.796 2.994-3.031zm1.699 20.747c-.9.725-2.316 1.513-3.95 1.139a5.42 5.42 0 00-2.407 0c-1.632.373-3.05-.414-3.95-1.14-2.043-1.645-3.535-4.664-3.548-7.178-.018-3.502.621-5.72 1.954-6.781 1.128-.9 2.793-1.01 5.396-.357.289.072.584.112.88.137.023.207.038.41.045.609a.401.401 0 00.398.39h.013a.402.402 0 00.386-.416 8.504 8.504 0 00-.04-.574c.344-.02.686-.062 1.02-.146 2.603-.651 4.268-.542 5.397.357 1.333 1.062 1.972 3.28 1.954 6.781-.013 2.514-1.505 5.533-3.548 7.179zm-9.066-13.716c-1.981 0-3.592 1.813-3.592 4.04 0 .224.178.405.399.405.22 0 .399-.181.399-.404 0-1.783 1.253-3.233 2.794-3.233.22 0 .399-.18.399-.404a.401.401 0 00-.4-.404zm5.06.119a1.692 1.692 0 01-1.212.508c-.457 0-.888-.18-1.211-.508a.395.395 0 00-.565 0 .407.407 0 000 .57c.475.481 1.106.746 1.776.746.67 0 1.301-.264 1.776-.745a.407.407 0 000-.571.395.395 0 00-.564 0z" fill="#000"/></g></svg>