<svg width="40" height="40" xmlns="http://www.w3.org/2000/svg"><g fill="none" fill-rule="evenodd"><path d="M2 2h36v36H2z"/><g stroke="#000"><path stroke-width=".8" fill="#000" d="M8.517 33.33l-.192-.163 5.396-5.26.192.163-5.396 5.26M27.429 17.218l-.224-.23 6.697-6.87.224.23-6.697 6.87"/><path d="M20 37.3c9.539 0 17.3-7.762 17.3-17.3 0-9.539-7.761-17.3-17.3-17.3-9.539 0-17.3 7.761-17.3 17.3 0 9.538 7.762 17.3 17.3 17.3z" stroke-width="1.4"/></g><g fill="#000"><path d="M20.373 9c-2.094 0-4.23 1.505-5.862 4.13C12.89 15.734 12 19.06 12 22.494c0 2.315.737 4.484 2.076 6.107 1.546 1.874 3.723 2.865 6.297 2.865 2.494 0 4.718-1.035 6.262-2.915 1.342-1.631 2.11-3.84 2.11-6.057 0-4.895-1.443-8.04-2.654-9.818C24.522 10.374 22.384 9 20.373 9zm0 1.33c2.96 0 7.059 4.222 7.059 12.15 0 3.712-2.474 7.656-7.06 7.656-2.168 0-3.995-.826-5.284-2.389-1.144-1.387-1.774-3.257-1.774-5.266 0-6.844 3.794-12.151 7.059-12.151z"/><path d="M15.176 21.948a.636.636 0 01-.632-.714c.115-.933.308-1.85.571-2.728.794-2.64 2.203-4.828 3.868-6.005a.636.636 0 01.734 1.038c-1.416 1.001-2.681 2.995-3.383 5.333-.243.809-.42 1.656-.528 2.519a.636.636 0 01-.63.557"/></g></g></svg>