<svg width="40" height="40" xmlns="http://www.w3.org/2000/svg"><g fill="none" fill-rule="evenodd"><path d="M2 2h36v36H2z"/><path d="M20 37.3c9.539 0 17.3-7.762 17.3-17.3 0-9.539-7.761-17.3-17.3-17.3-9.539 0-17.3 7.761-17.3 17.3 0 9.538 7.762 17.3 17.3 17.3z" stroke="#000" stroke-width="1.4"/><path d="M19.214 8.239l.525-.541.5.563c.935 1.053 1.601 2.306 1.57 3.67-.03 1.37-.754 2.595-1.734 3.599l-.524.536-.5-.56c-.932-1.046-1.6-2.3-1.57-3.672.031-1.364.753-2.587 1.733-3.595zm.35 7.575c.07 0 .137-.025.192-.072.959-.82 1.95-2.234 1.986-3.812.02-.896-.28-1.789-.81-2.64a6.582 6.582 0 00-1.003-1.258.292.292 0 00-.393-.01c-.298.259-.69.677-1.059 1.213-.568.827-.907 1.706-.927 2.6-.036 1.574.876 3.013 1.814 3.9.054.051.123.08.2.08zM13.184 25.178v.699c-.281-.047-.281-.047-.387-.118-.072-.053-.072-.053-.107-.087l.494-.494zm0-.701c.282.047.282.047.389.117.072.054.072.054.107.088l-.808 1.121h0l.312-1.326zm-.305.774l-.048-.825.821.088c2.395.257 4.05 1.356 5.033 3.04.662 1.135.94 2.37.98 3.5l.024.7-.699.025c-1.52.054-3.071-.515-4.404-1.96-1.127-1.224-1.61-2.892-1.707-4.568zm6.719 6.172h1.4v.01h-1.4v-.01zm1.4 0v.01h-1.4v-.01h1.4zm-2.185.29c.298 0 .573-.025.821-.066.028-.005.028-.005.031-.011.003-.005.003-.003-.018-.054l-.048-.125v-.134a7.356 7.356 0 00-.102-1.2 7.73 7.73 0 00-.608-2.016c-.945-2.034-2.72-3.373-5.661-3.56a.28.28 0 00-.203.07.281.281 0 00-.09.193c-.002.077.001.262.018.501.028.403.085.837.178 1.283.26 1.252.748 2.356 1.505 3.178 1.274 1.381 2.715 1.941 4.177 1.941z" stroke="#000" stroke-width="1.4"/><path d="M26.107 25.178l.494.494c-.005.012-.005.012-.182.13-.272.082-.272.082-.312.075v-.7zm.313.625h-.001l-.808-1.121c.006-.012.006-.012.183-.131.272-.082.272-.082.313-.074l.313 1.326zM20.3 31.779l-.7-.025.025-.7c.04-1.132.319-2.368.981-3.502.983-1.683 2.637-2.78 5.029-3.037l.826-.09-.053.83c-.107 1.687-.59 3.356-1.704 4.563-1.333 1.445-2.884 2.014-4.404 1.96zm.177-.066c1.462 0 2.903-.56 4.177-1.941.761-.826 1.249-1.93 1.508-3.182.092-.446.149-.88.176-1.281.016-.24.02-.434.017-.5a.272.272 0 00-.292-.263c-4.408.282-6.479 3.466-6.375 6.763l.004.145-.053.135c-.017.042-.017.042-.014.047.003.006.004.006.03.01.25.043.525.067.822.067zM14.1 20.559h0v-1.4h0v1.4zm0-1.4h0v1.4h0v-1.4zm5.453 5.972v.698c.023 0 .023 0 .114-.01.136-.023.136-.023.38-.194l-.494-.494zm0 0l-.497-.496c.244-.172.244-.172.381-.196.092-.01.092-.01.116-.01v.702zm0 0v.698c.023 0 .023 0 .114-.01.136-.023.136-.023.38-.194l-.494-.494zm-1.084.717l-.164-.02a6.326 6.326 0 01-1.234-.462 5.96 5.96 0 01-1.862-1.394c-.953-1.081-1.348-2.545-1.412-4.035l-.036-.846.838.124c3.637.537 5.03 3.06 5.09 5.923l.014.696-.697.018a5.182 5.182 0 01-.284 0l-.087-.002-.166-.002zm.098-1.399h-.087l-.006.7.17-.68a3.412 3.412 0 01-.077-.02zm1.049 1.035s0 0 0 0a.015.015 0 010 0zm0 0l-.003.054h1.4v.029c-.002.036-.002.036-.01.094l-1.39-.115a.745.745 0 01.003-.062zm.65.054h-.653v-.022c.002-.032.002-.032.01-.085l.642.107zm-1.912.232l.278.012h.07l.29.003c.285 0 .5-.01.648-.03.026-.004.027-.004.03-.01.004-.005.004-.015-.013-.062l-.044-.13.007-.136c.161-2.933-1.592-5.82-5.395-6.184l-.066-.003a.282.282 0 00-.203.065.276.276 0 00-.095.188c-.004.072-.006.229.001.44.014.357.052.743.123 1.141.2 1.115.61 2.108 1.275 2.863.565.64 1.269 1.125 2.04 1.473a6.497 6.497 0 001.054.37z" stroke="#000" stroke-width="1.4"/><path d="M25.192 19.859h-.001zm-5.455 5.27h.002-.002zm.567.024c.116-.007.244-.002.346-.003l.167-.002c.29-.072 1.712-.474 2.74-1.64 1.013-1.148 1.204-2.846 1.238-3.6-4.08.601-4.467 4.168-4.49 5.245zm-1.326.391v0zm1.321.94c-.263 0-.532-.007-.743-.035a.722.722 0 01-.537-.347.747.747 0 01-.047-.648c-.1-1.847.792-6.417 6.094-6.92a.978.978 0 011.063.904c.002.036.155 2.993-1.573 4.952-1.45 1.643-3.444 2.06-3.529 2.076l-.13.013-.23.002c-.116.002-.24.004-.368.004z" fill="#000"/><path d="M14.661 13.957h1.4v.001h-1.4 0zm1.4 0v.001h-1.4 1.4zm-1.442.325l.07-.835.808.217c3.307.884 4.366 3.366 4.158 6.038l-.053.684-.686-.04c-1.138-.066-2.205-.742-3.262-2-.919-1.092-1.16-2.565-1.035-4.064zm4.647 4.667v1.4h-.002v-1.4h.002zm0 1.4h-.002v-1.4h.002v1.4zm-.167-.066c.062 0 .123 0 .184-.002a.28.28 0 00.262-.22c.506-2.61-.86-5.672-4.482-6.43a.275.275 0 00-.325.22c-.242 1.36-.1 3.181.968 4.452 1.139 1.355 2.24 1.98 3.392 1.98h.001z" stroke="#000" stroke-width="1.4"/><path d="M23.23 13.961h1.4-1.4s0 0 0 0zm1.4 0s0 0 0 0h-1.4 1.4zm.043.32c.125 1.497-.117 2.972-1.035 4.066-1.057 1.257-2.124 1.932-3.262 1.999l-.687.04-.052-.685c-.206-2.679.856-5.155 4.157-6.037l.809-.216.07.833zm-4.65 6.068v-1.4h.002v1.4h-.002zm0-1.4h.002v1.4h-.002v-1.4zm.17 1.334c1.152 0 2.254-.625 3.392-1.98 1.068-1.271 1.21-3.083.968-4.452a.274.274 0 00-.325-.22c-3.634.76-4.996 3.821-4.482 6.43a.28.28 0 00.264.22c.058.002.118.002.183.002z" stroke="#000" stroke-width="1.4"/></g></svg>