<svg width="40" height="40" xmlns="http://www.w3.org/2000/svg"><g fill="none" fill-rule="evenodd"><path d="M2 2h36v36H2z"/><g stroke="#000"><path stroke-width=".8" fill="#000" d="M24.266 18L24 17.685l7.972-9.447.266.315L24.266 18M14.727 29.874l.138.12-3.592 4.132-.138-.12 3.592-4.132"/><path d="M20 37.3c9.539 0 17.3-7.762 17.3-17.3 0-9.539-7.761-17.3-17.3-17.3-9.539 0-17.3 7.761-17.3 17.3 0 9.538 7.762 17.3 17.3 17.3z" stroke-width="1.4"/></g><g fill="#000"><path d="M19.716 8.726c-.472.486-1.503 1.707-1.534 3.124-.032 1.425.942 2.686 1.392 3.19.474-.485 1.504-1.7 1.536-3.125.031-1.416-.943-2.68-1.394-3.189zm-.152 7.788a.986.986 0 01-.683-.272c-.107-.101-2.085-2.009-2.031-4.422.053-2.373 2.005-4.134 2.227-4.326a.992.992 0 011.331.028c.215.204 2.086 2.049 2.034 4.423-.055 2.427-2.142 4.252-2.23 4.329a.99.99 0 01-.648.24zM13.184 25.177h.001zm.394.033c.048.821.292 2.798 1.523 4.134 1.407 1.527 2.934 1.768 3.864 1.735-.04-1.155-.524-5.347-5.387-5.869zm6.72 6.213v.01-.01zm-1.485.99c-1.205 0-3.03-.365-4.691-2.167-1.953-2.118-1.888-5.421-1.887-5.454a.984.984 0 01.318-.692.98.98 0 01.717-.252c3.757.24 5.475 2.287 6.254 3.964a8.682 8.682 0 01.776 3.516c.092.237.084.446-.017.637a.72.72 0 01-.532.372c-.233.04-.554.076-.938.076z"/><path d="M26.107 25.177h-.001zm-5.781 5.902c.93.033 2.457-.209 3.864-1.735 1.214-1.317 1.468-3.306 1.52-4.133-4.858.522-5.343 4.706-5.384 5.868zm.152 1.334c-.384 0-.705-.037-.937-.076a.721.721 0 01-.533-.372.728.728 0 01-.019-.634c-.064-2.046 1.057-7.102 7.031-7.483a.974.974 0 011.036.94c.001.035.074 3.331-1.886 5.458-1.662 1.802-3.487 2.167-4.692 2.167z"/><path d="M14.1 19.859zm5.453 5.27h-.002.002zm-1.079.02h.167c.102.002.21.007.347.004-.022-1.056-.4-4.642-4.491-5.246.032.754.222 2.45 1.237 3.602 1.027 1.163 2.447 1.566 2.74 1.64zm1.84.389l-.001.008v-.008zm-1.321.947c-.127 0-.253-.002-.37-.004l-.36-.015c-.084-.017-2.078-.433-3.528-2.076-1.739-1.972-1.574-4.92-1.572-4.949a.975.975 0 011.062-.908c5.306.504 6.195 5.08 6.094 6.922a.75.75 0 01-.046.647.723.723 0 01-.54.347 5.833 5.833 0 01-.74.036z"/><path d="M25.192 19.859h-.001zm-5.455 5.27h.002-.002zm.567.024c.116-.007.244-.002.346-.003l.167-.002c.29-.072 1.712-.474 2.74-1.64 1.013-1.148 1.204-2.846 1.238-3.6-4.08.601-4.467 4.168-4.49 5.245zm-1.326.391v0zm1.321.94c-.263 0-.532-.007-.743-.035a.722.722 0 01-.537-.347.747.747 0 01-.047-.648c-.1-1.847.792-6.417 6.094-6.92a.978.978 0 011.063.904c.002.036.155 2.993-1.573 4.952-1.45 1.643-3.444 2.06-3.529 2.076l-.13.013-.23.002c-.116.002-.24.004-.368.004zM15.361 13.957v.001zm-.045.383c-.062.748-.076 2.426.874 3.556.944 1.124 1.85 1.698 2.767 1.752.08-1.013.042-4.323-3.64-5.308zm3.95 5.31h-.002.002zm-.167 1.333c-1.383 0-2.668-.73-3.929-2.23-1.642-1.954-1.143-4.9-1.121-5.024a.972.972 0 01.413-.637c.214-.146.486-.2.745-.146 5.044 1.056 5.325 5.703 5.025 7.248a.98.98 0 01-.93.787 7.634 7.634 0 01-.203.002z"/><path d="M23.93 13.961zm.045.379c.063.745.077 2.425-.873 3.556-.944 1.123-1.85 1.697-2.767 1.751-.08-1.034-.032-4.325 3.64-5.307zm-3.952 5.31h.002-.002zm.17 1.333c-.068 0-.136 0-.206-.003a.978.978 0 01-.928-.785c-.304-1.544-.035-6.19 5.026-7.25a.974.974 0 011.158.785c.021.123.52 3.069-1.122 5.023-1.26 1.5-2.545 2.23-3.928 2.23z"/></g></g></svg>