<svg width="36" height="36" xmlns="http://www.w3.org/2000/svg"><g fill="none" fill-rule="evenodd"><path d="M0 0h36v36H0z"/><path d="M18 35.3c9.539 0 17.3-7.762 17.3-17.3C35.3 8.46 27.539.7 18 .7 8.461.7.7 8.461.7 18c0 9.538 7.762 17.3 17.3 17.3z" stroke="#000" stroke-width="1.4"/><g transform="translate(14 12)" fill-rule="nonzero" stroke="#000" stroke-linecap="round" stroke-linejoin="round" stroke-width="1.2"><path d="M2.749 6.783c.63-.624 3.396-2.36 4.24-4.116C7.832.909 9.699 0 11.006 0c1.307 0 3.734.823 2.775 6.159-.958 5.336-3.857 11.135-8.4 11.135s-8.049-6.456-2.632-10.511z"/><circle cx="7.412" cy="9.059" r="2.471"/></g><g stroke="#000" stroke-linecap="round" stroke-linejoin="round" stroke-width="1.2"><path d="M6.344 19.667s.224-3.18 2.693-4.65c2.469-1.47 2.692-2.554 3.03-3.708.425-1.456 1.195-3.662 4.035-4.577l3.391 2.404c-2.84.915-3.61 3.121-4.036 4.577-.337 1.154-.56 2.238-3.03 3.708-2.468 1.47-2.692 4.65-2.692 4.65l-3.39-2.404z"/><path d="M8.12 20.776s.218-3.134 2.648-4.583c2.429-1.449 2.648-2.518 2.98-3.655.418-1.435 1.175-3.61 3.97-4.51"/></g></g></svg>