<svg width="120" height="80" viewBox="0 0 120 80" fill="none" xmlns="http://www.w3.org/2000/svg">
<rect width="120" height="80" fill="#D6DBE3"/>
<g opacity="0.7">
<path d="M78.3636 25H41.5455C40.4175 25 39.5 25.9175 39.5 27.0455V52.9545C39.5 54.0825 40.4175 55 41.5455 55H78.3636C79.4916 55 80.4091 54.0825 80.4091 52.9545V42.8431C80.4091 42.843 80.4091 42.8429 80.4091 42.8427V27.0455C80.4091 25.9175 79.4916 25 78.3636 25ZM41.5455 53.6363C41.1696 53.6363 40.8637 53.3304 40.8637 52.9545V44.496L47.2054 38.1539C47.4618 37.8943 47.8986 37.8909 48.1616 38.1573L54.9007 44.8901L46.1518 53.6363H41.5455ZM79.0454 52.9545C79.0454 53.3303 78.7395 53.6363 78.3636 53.6363H48.0804L68.3418 33.3812C68.5981 33.1215 69.0352 33.1181 69.2976 33.3845L79.0455 43.1258V52.9545H79.0454ZM79.0454 41.1977L70.2646 32.4231C69.4916 31.6407 68.1416 31.644 67.3746 32.4197L55.8649 43.9261L49.1284 37.1959C48.3554 36.4135 47.0054 36.4165 46.2383 37.1929L40.8637 42.5678V27.0455C40.8637 26.6696 41.1696 26.3637 41.5455 26.3637H78.3636C78.7395 26.3637 79.0454 26.6696 79.0454 27.0455V41.1977V41.1977Z" fill="white"/>
<path d="M56.546 29.7727C54.2902 29.7727 52.4551 31.6078 52.4551 33.8636C52.4551 36.1194 54.2902 37.9545 56.546 37.9545C58.8018 37.9545 60.6369 36.1194 60.6369 33.8636C60.6369 31.6078 58.8019 29.7727 56.546 29.7727ZM56.546 36.5908C55.0422 36.5908 53.8187 35.3673 53.8187 33.8636C53.8187 32.3599 55.0422 31.1364 56.546 31.1364C58.0498 31.1364 59.2732 32.3599 59.2732 33.8636C59.2732 35.3673 58.0498 36.5908 56.546 36.5908Z" fill="white"/>
</g>
</svg>
